<svg width="32" height="32" viewBox="0 0 32 32" fill="none" xmlns="http://www.w3.org/2000/svg">
  <!-- Simple WhatsApp-style chat bubble for favicon -->
  <path d="M16 4C9.92487 4 5 8.92487 5 15C5 17.3333 5.71795 19.5128 6.96154 21.3333L5 27L11.0769 25.1538C12.7692 26.0513 14.7179 26.5641 16.7692 26.5641C22.8444 26.5641 27.7692 21.6393 27.7692 15.5641C27.7692 9.48898 22.8444 4 16 4Z" fill="#25D366"/>

  <!-- Phone icon -->
  <path d="M19.5 16.5C19.3 16.3 17 15.2 16.6 15C16.2 14.8 15.9 14.7 15.6 15.1C15.3 15.5 14.4 16.5 14.2 16.8C14 17 13.8 17.1 13.5 16.9C13.2 16.7 12.2 16.4 11 15.3C10 14.4 9.3 13.3 9.1 13C8.9 12.7 9.1 12.5 9.3 12.3C9.5 12.1 9.7 11.8 9.9 11.6C10.1 11.4 10.2 11.2 10.3 11C10.4 10.8 10.4 10.6 10.3 10.4C10.2 10.2 9.5 8.7 9.2 8C8.9 7.3 8.6 7.4 8.4 7.4H8C7.7 7.4 7.3 7.5 7 7.8C6.7 8.1 5.8 9 5.8 10.5C5.8 12 7 13.4 7.2 13.7C7.4 13.9 9.5 17.2 12.7 18.6C15.9 20 15.9 19.5 16.5 19.5C17.1 19.5 18.4 19 18.7 18.3C19 17.6 19 17 18.9 16.9C18.8 16.8 19.7 16.7 19.5 16.5Z" fill="white"/>
</svg>
