<svg xmlns="http://www.w3.org/2000/svg" xmlns:xlink="http://www.w3.org/1999/xlink" width="500" zoomAndPan="magnify" viewBox="0 0 375 374.999991" height="500" preserveAspectRatio="xMidYMid meet" version="1.2"><defs/><g id="234fdac510"><g style="fill:#43318d;fill-opacity:1;"><g transform="translate(174.737674, 210.817404)"><path style="stroke:none" d="M 55.6875 -16.625 C 55.6875 -13.5 54.914062 -10.679688 53.375 -8.171875 C 51.84375 -5.671875 49.765625 -3.679688 47.140625 -2.203125 C 44.515625 -0.734375 41.609375 0 38.421875 0 L 8.40625 0 L 8.40625 -64.171875 L 38.328125 -64.171875 C 41.335938 -64.171875 43.941406 -63.375 46.140625 -61.78125 C 48.335938 -60.1875 50.023438 -58.140625 51.203125 -55.640625 C 52.378906 -53.140625 52.96875 -50.53125 52.96875 -47.8125 C 52.96875 -44.625 52.15625 -41.65625 50.53125 -38.90625 C 48.90625 -36.164062 46.644531 -34.164062 43.75 -32.90625 C 47.425781 -31.820312 50.332031 -29.785156 52.46875 -26.796875 C 54.613281 -23.816406 55.6875 -20.425781 55.6875 -16.625 Z M 51.078125 -17.265625 C 51.078125 -19.554688 50.546875 -21.695312 49.484375 -23.6875 C 48.429688 -25.675781 47 -27.300781 45.1875 -28.5625 C 43.382812 -29.832031 41.335938 -30.46875 39.046875 -30.46875 L 13.015625 -30.46875 L 13.015625 -4.15625 L 38.421875 -4.15625 C 40.765625 -4.15625 42.898438 -4.769531 44.828125 -6 C 46.753906 -7.238281 48.273438 -8.867188 49.390625 -10.890625 C 50.515625 -12.910156 51.078125 -15.035156 51.078125 -17.265625 Z M 13.015625 -60.015625 L 13.015625 -34.34375 L 36.515625 -34.34375 C 38.867188 -34.34375 40.929688 -34.957031 42.703125 -36.1875 C 44.484375 -37.425781 45.882812 -39.023438 46.90625 -40.984375 C 47.9375 -42.953125 48.453125 -45.019531 48.453125 -47.1875 C 48.453125 -49.53125 47.96875 -51.664062 47 -53.59375 C 46.039062 -55.53125 44.703125 -57.082031 42.984375 -58.25 C 41.265625 -59.425781 39.289062 -60.015625 37.0625 -60.015625 Z M 13.015625 -60.015625 "/></g></g><g style="fill:#ffffff;fill-opacity:1;"><g transform="translate(155.450049, 205.929984)"><path style="stroke:none" d="M 8.765625 0 L 8.765625 -66.859375 L 36.53125 -66.859375 C 39.425781 -66.859375 42.050781 -66.257812 44.40625 -65.0625 C 46.757812 -63.875 48.796875 -62.289062 50.515625 -60.3125 C 52.242188 -58.332031 53.59375 -56.117188 54.5625 -53.671875 C 55.539062 -51.222656 56.03125 -48.710938 56.03125 -46.140625 C 56.03125 -42.816406 55.367188 -39.707031 54.046875 -36.8125 C 52.734375 -33.925781 50.898438 -31.507812 48.546875 -29.5625 C 46.191406 -27.625 43.445312 -26.429688 40.3125 -25.984375 L 56.96875 0 L 51.421875 0 L 35.21875 -25.234375 L 13.5625 -25.234375 L 13.5625 0 Z M 13.5625 -29.671875 L 37.015625 -29.671875 C 39.898438 -29.671875 42.410156 -30.453125 44.546875 -32.015625 C 46.679688 -33.585938 48.328125 -35.628906 49.484375 -38.140625 C 50.648438 -40.648438 51.234375 -43.316406 51.234375 -46.140625 C 51.234375 -49.023438 50.554688 -51.707031 49.203125 -54.1875 C 47.859375 -56.675781 46.070312 -58.6875 43.84375 -60.21875 C 41.613281 -61.757812 39.113281 -62.53125 36.34375 -62.53125 L 13.5625 -62.53125 Z M 13.5625 -29.671875 "/></g></g><g style="fill:#8c52ff;fill-opacity:1;"><g transform="translate(157.675907, 201.914424)"><path style="stroke:none" d="M 8.765625 0 L 8.765625 -66.859375 L 36.53125 -66.859375 C 39.425781 -66.859375 42.050781 -66.257812 44.40625 -65.0625 C 46.757812 -63.875 48.796875 -62.289062 50.515625 -60.3125 C 52.242188 -58.332031 53.59375 -56.117188 54.5625 -53.671875 C 55.539062 -51.222656 56.03125 -48.710938 56.03125 -46.140625 C 56.03125 -42.816406 55.367188 -39.707031 54.046875 -36.8125 C 52.734375 -33.925781 50.898438 -31.507812 48.546875 -29.5625 C 46.191406 -27.625 43.445312 -26.429688 40.3125 -25.984375 L 56.96875 0 L 51.421875 0 L 35.21875 -25.234375 L 13.5625 -25.234375 L 13.5625 0 Z M 13.5625 -29.671875 L 37.015625 -29.671875 C 39.898438 -29.671875 42.410156 -30.453125 44.546875 -32.015625 C 46.679688 -33.585938 48.328125 -35.628906 49.484375 -38.140625 C 50.648438 -40.648438 51.234375 -43.316406 51.234375 -46.140625 C 51.234375 -49.023438 50.554688 -51.707031 49.203125 -54.1875 C 47.859375 -56.675781 46.070312 -58.6875 43.84375 -60.21875 C 41.613281 -61.757812 39.113281 -62.53125 36.34375 -62.53125 L 13.5625 -62.53125 Z M 13.5625 -29.671875 "/></g></g><g style="fill:#ffffff;fill-opacity:1;"><g transform="translate(158.922834, 223.249544)"><path style="stroke:none" d="M 1.125 0 L 1.125 -8.953125 L 4.90625 -8.953125 C 5.289062 -8.953125 5.640625 -8.867188 5.953125 -8.703125 C 6.273438 -8.546875 6.554688 -8.332031 6.796875 -8.0625 C 7.035156 -7.789062 7.21875 -7.488281 7.34375 -7.15625 C 7.476562 -6.820312 7.546875 -6.484375 7.546875 -6.140625 C 7.546875 -5.710938 7.460938 -5.304688 7.296875 -4.921875 C 7.140625 -4.546875 6.910156 -4.226562 6.609375 -3.96875 C 6.316406 -3.707031 5.96875 -3.535156 5.5625 -3.453125 L 7.75 0 L 6.765625 0 L 4.65625 -3.296875 L 2 -3.296875 L 2 0 Z M 2 -4.078125 L 4.9375 -4.078125 C 5.28125 -4.078125 5.582031 -4.175781 5.84375 -4.375 C 6.101562 -4.570312 6.304688 -4.828125 6.453125 -5.140625 C 6.597656 -5.453125 6.671875 -5.785156 6.671875 -6.140625 C 6.671875 -6.503906 6.585938 -6.835938 6.421875 -7.140625 C 6.253906 -7.453125 6.035156 -7.703125 5.765625 -7.890625 C 5.492188 -8.078125 5.191406 -8.171875 4.859375 -8.171875 L 2 -8.171875 Z M 2 -4.078125 "/></g></g><g style="fill:#ffffff;fill-opacity:1;"><g transform="translate(168.153647, 223.249544)"><path style="stroke:none" d="M 7.140625 -0.78125 L 7.140625 0 L 1.125 0 L 1.125 -8.953125 L 7.03125 -8.953125 L 7.03125 -8.171875 L 2 -8.171875 L 2 -4.9375 L 6.375 -4.9375 L 6.375 -4.203125 L 2 -4.203125 L 2 -0.78125 Z M 7.140625 -0.78125 "/></g></g><g style="fill:#ffffff;fill-opacity:1;"><g transform="translate(176.829654, 223.249544)"><path style="stroke:none" d="M 3.890625 -8.953125 L 4.640625 -8.953125 L 8.359375 0 L 7.421875 0 L 6.265625 -2.796875 L 2.25 -2.796875 L 1.09375 0 L 0.15625 0 Z M 6.0625 -3.5 L 4.265625 -7.921875 L 2.4375 -3.5 Z M 6.0625 -3.5 "/></g></g><g style="fill:#ffffff;fill-opacity:1;"><g transform="translate(186.350494, 223.249544)"><path style="stroke:none" d="M 0.53125 -4.546875 C 0.53125 -5.085938 0.625 -5.617188 0.8125 -6.140625 C 1 -6.671875 1.273438 -7.148438 1.640625 -7.578125 C 2.003906 -8.015625 2.445312 -8.359375 2.96875 -8.609375 C 3.5 -8.867188 4.101562 -9 4.78125 -9 C 5.582031 -9 6.265625 -8.816406 6.828125 -8.453125 C 7.390625 -8.085938 7.804688 -7.617188 8.078125 -7.046875 L 7.390625 -6.625 C 7.191406 -7.019531 6.945312 -7.332031 6.65625 -7.5625 C 6.363281 -7.789062 6.050781 -7.953125 5.71875 -8.046875 C 5.382812 -8.148438 5.054688 -8.203125 4.734375 -8.203125 C 4.191406 -8.203125 3.710938 -8.09375 3.296875 -7.875 C 2.890625 -7.664062 2.546875 -7.382812 2.265625 -7.03125 C 1.984375 -6.675781 1.769531 -6.273438 1.625 -5.828125 C 1.476562 -5.390625 1.40625 -4.941406 1.40625 -4.484375 C 1.40625 -3.992188 1.488281 -3.519531 1.65625 -3.0625 C 1.832031 -2.613281 2.070312 -2.210938 2.375 -1.859375 C 2.675781 -1.515625 3.03125 -1.238281 3.4375 -1.03125 C 3.84375 -0.820312 4.285156 -0.71875 4.765625 -0.71875 C 5.097656 -0.71875 5.441406 -0.773438 5.796875 -0.890625 C 6.148438 -1.015625 6.476562 -1.195312 6.78125 -1.4375 C 7.09375 -1.675781 7.34375 -1.992188 7.53125 -2.390625 L 8.265625 -2 C 8.078125 -1.5625 7.789062 -1.1875 7.40625 -0.875 C 7.019531 -0.5625 6.585938 -0.320312 6.109375 -0.15625 C 5.628906 0 5.164062 0.078125 4.71875 0.078125 C 4.101562 0.078125 3.535156 -0.0507812 3.015625 -0.3125 C 2.503906 -0.582031 2.0625 -0.9375 1.6875 -1.375 C 1.320312 -1.820312 1.035156 -2.316406 0.828125 -2.859375 C 0.628906 -3.410156 0.53125 -3.972656 0.53125 -4.546875 Z M 0.53125 -4.546875 "/></g></g><g style="fill:#ffffff;fill-opacity:1;"><g transform="translate(195.997419, 223.249544)"><path style="stroke:none" d="M 8.1875 -8.953125 L 8.1875 0 L 7.3125 0 L 7.3125 -4.1875 L 2 -4.1875 L 2 0 L 1.125 0 L 1.125 -8.953125 L 2 -8.953125 L 2 -4.96875 L 7.3125 -4.96875 L 7.3125 -8.953125 Z M 8.1875 -8.953125 "/></g></g><g style="fill:#ffffff;fill-opacity:1;"><g transform="translate(206.300037, 223.249544)"><path style="stroke:none" d="M 7.859375 -2.3125 C 7.859375 -1.863281 7.742188 -1.460938 7.515625 -1.109375 C 7.285156 -0.765625 6.976562 -0.492188 6.59375 -0.296875 C 6.21875 -0.0976562 5.800781 0 5.34375 0 L 1.125 0 L 1.125 -8.953125 L 5.4375 -8.953125 C 5.851562 -8.953125 6.210938 -8.835938 6.515625 -8.609375 C 6.828125 -8.390625 7.066406 -8.101562 7.234375 -7.75 C 7.398438 -7.40625 7.484375 -7.046875 7.484375 -6.671875 C 7.484375 -6.222656 7.367188 -5.8125 7.140625 -5.4375 C 6.910156 -5.0625 6.59375 -4.78125 6.1875 -4.59375 C 6.695312 -4.4375 7.101562 -4.148438 7.40625 -3.734375 C 7.707031 -3.328125 7.859375 -2.851562 7.859375 -2.3125 Z M 6.96875 -2.453125 C 6.96875 -2.753906 6.898438 -3.035156 6.765625 -3.296875 C 6.628906 -3.554688 6.445312 -3.765625 6.21875 -3.921875 C 5.988281 -4.078125 5.726562 -4.15625 5.4375 -4.15625 L 2 -4.15625 L 2 -0.765625 L 5.34375 -0.765625 C 5.644531 -0.765625 5.914062 -0.84375 6.15625 -1 C 6.40625 -1.164062 6.601562 -1.375 6.75 -1.625 C 6.894531 -1.882812 6.96875 -2.160156 6.96875 -2.453125 Z M 2 -8.1875 L 2 -4.875 L 5.078125 -4.875 C 5.367188 -4.875 5.628906 -4.953125 5.859375 -5.109375 C 6.085938 -5.265625 6.269531 -5.46875 6.40625 -5.71875 C 6.539062 -5.976562 6.609375 -6.25 6.609375 -6.53125 C 6.609375 -6.832031 6.546875 -7.109375 6.421875 -7.359375 C 6.296875 -7.609375 6.125 -7.804688 5.90625 -7.953125 C 5.6875 -8.109375 5.4375 -8.1875 5.15625 -8.1875 Z M 2 -8.1875 "/></g></g><g style="fill:#ffffff;fill-opacity:1;"><g transform="translate(215.69478, 223.249544)"><path style="stroke:none" d="M 4.734375 0.0625 C 4.097656 0.0625 3.523438 -0.0625 3.015625 -0.3125 C 2.503906 -0.5625 2.0625 -0.90625 1.6875 -1.34375 C 1.320312 -1.78125 1.035156 -2.269531 0.828125 -2.8125 C 0.628906 -3.351562 0.53125 -3.90625 0.53125 -4.46875 C 0.53125 -5.070312 0.632812 -5.644531 0.84375 -6.1875 C 1.050781 -6.726562 1.347656 -7.207031 1.734375 -7.625 C 2.117188 -8.050781 2.566406 -8.390625 3.078125 -8.640625 C 3.585938 -8.890625 4.140625 -9.015625 4.734375 -9.015625 C 5.367188 -9.015625 5.941406 -8.882812 6.453125 -8.625 C 6.960938 -8.363281 7.398438 -8.015625 7.765625 -7.578125 C 8.140625 -7.140625 8.425781 -6.648438 8.625 -6.109375 C 8.820312 -5.578125 8.921875 -5.03125 8.921875 -4.46875 C 8.921875 -3.863281 8.816406 -3.289062 8.609375 -2.75 C 8.398438 -2.207031 8.101562 -1.722656 7.71875 -1.296875 C 7.34375 -0.878906 6.898438 -0.546875 6.390625 -0.296875 C 5.878906 -0.0546875 5.328125 0.0625 4.734375 0.0625 Z M 1.40625 -4.46875 C 1.40625 -3.988281 1.484375 -3.519531 1.640625 -3.0625 C 1.804688 -2.613281 2.035156 -2.210938 2.328125 -1.859375 C 2.628906 -1.515625 2.984375 -1.238281 3.390625 -1.03125 C 3.796875 -0.832031 4.242188 -0.734375 4.734375 -0.734375 C 5.242188 -0.734375 5.703125 -0.835938 6.109375 -1.046875 C 6.515625 -1.265625 6.863281 -1.550781 7.15625 -1.90625 C 7.445312 -2.269531 7.664062 -2.671875 7.8125 -3.109375 C 7.96875 -3.554688 8.046875 -4.007812 8.046875 -4.46875 C 8.046875 -4.957031 7.960938 -5.425781 7.796875 -5.875 C 7.640625 -6.320312 7.410156 -6.722656 7.109375 -7.078125 C 6.816406 -7.429688 6.46875 -7.707031 6.0625 -7.90625 C 5.65625 -8.101562 5.210938 -8.203125 4.734375 -8.203125 C 4.222656 -8.203125 3.765625 -8.097656 3.359375 -7.890625 C 2.953125 -7.679688 2.601562 -7.394531 2.3125 -7.03125 C 2.019531 -6.675781 1.796875 -6.273438 1.640625 -5.828125 C 1.484375 -5.390625 1.40625 -4.9375 1.40625 -4.46875 Z M 1.40625 -4.46875 "/></g></g><g style="fill:#ffffff;fill-opacity:1;"><g transform="translate(226.161316, 223.249544)"><path style="stroke:none" d="M 1.078125 -8.953125 L 4 -5.0625 L 6.90625 -8.953125 L 7.90625 -8.953125 L 4.46875 -4.40625 L 7.8125 0 L 6.8125 0 L 4 -3.765625 L 1.171875 0 L 0.15625 0 L 3.5 -4.40625 L 0.0625 -8.953125 Z M 1.078125 -8.953125 "/></g></g><g style="fill:#ffffff;fill-opacity:1;"><g transform="translate(159.221075, 222.711507)"><path style="stroke:none" d="M 1.125 0 L 1.125 -8.953125 L 4.90625 -8.953125 C 5.289062 -8.953125 5.640625 -8.867188 5.953125 -8.703125 C 6.273438 -8.546875 6.554688 -8.332031 6.796875 -8.0625 C 7.035156 -7.789062 7.21875 -7.488281 7.34375 -7.15625 C 7.476562 -6.820312 7.546875 -6.484375 7.546875 -6.140625 C 7.546875 -5.710938 7.460938 -5.304688 7.296875 -4.921875 C 7.140625 -4.546875 6.910156 -4.226562 6.609375 -3.96875 C 6.316406 -3.707031 5.96875 -3.535156 5.5625 -3.453125 L 7.75 0 L 6.765625 0 L 4.65625 -3.296875 L 2 -3.296875 L 2 0 Z M 2 -4.078125 L 4.9375 -4.078125 C 5.28125 -4.078125 5.582031 -4.175781 5.84375 -4.375 C 6.101562 -4.570312 6.304688 -4.828125 6.453125 -5.140625 C 6.597656 -5.453125 6.671875 -5.785156 6.671875 -6.140625 C 6.671875 -6.503906 6.585938 -6.835938 6.421875 -7.140625 C 6.253906 -7.453125 6.035156 -7.703125 5.765625 -7.890625 C 5.492188 -8.078125 5.191406 -8.171875 4.859375 -8.171875 L 2 -8.171875 Z M 2 -4.078125 "/></g></g><g style="fill:#ffffff;fill-opacity:1;"><g transform="translate(168.451888, 222.711507)"><path style="stroke:none" d="M 7.140625 -0.78125 L 7.140625 0 L 1.125 0 L 1.125 -8.953125 L 7.03125 -8.953125 L 7.03125 -8.171875 L 2 -8.171875 L 2 -4.9375 L 6.375 -4.9375 L 6.375 -4.203125 L 2 -4.203125 L 2 -0.78125 Z M 7.140625 -0.78125 "/></g></g><g style="fill:#ffffff;fill-opacity:1;"><g transform="translate(177.127895, 222.711507)"><path style="stroke:none" d="M 3.890625 -8.953125 L 4.640625 -8.953125 L 8.359375 0 L 7.421875 0 L 6.265625 -2.796875 L 2.25 -2.796875 L 1.09375 0 L 0.15625 0 Z M 6.0625 -3.5 L 4.265625 -7.921875 L 2.4375 -3.5 Z M 6.0625 -3.5 "/></g></g><g style="fill:#ffffff;fill-opacity:1;"><g transform="translate(186.648735, 222.711507)"><path style="stroke:none" d="M 0.53125 -4.546875 C 0.53125 -5.085938 0.625 -5.617188 0.8125 -6.140625 C 1 -6.671875 1.273438 -7.148438 1.640625 -7.578125 C 2.003906 -8.015625 2.445312 -8.359375 2.96875 -8.609375 C 3.5 -8.867188 4.101562 -9 4.78125 -9 C 5.582031 -9 6.265625 -8.816406 6.828125 -8.453125 C 7.390625 -8.085938 7.804688 -7.617188 8.078125 -7.046875 L 7.390625 -6.625 C 7.191406 -7.019531 6.945312 -7.332031 6.65625 -7.5625 C 6.363281 -7.789062 6.050781 -7.953125 5.71875 -8.046875 C 5.382812 -8.148438 5.054688 -8.203125 4.734375 -8.203125 C 4.191406 -8.203125 3.710938 -8.09375 3.296875 -7.875 C 2.890625 -7.664062 2.546875 -7.382812 2.265625 -7.03125 C 1.984375 -6.675781 1.769531 -6.273438 1.625 -5.828125 C 1.476562 -5.390625 1.40625 -4.941406 1.40625 -4.484375 C 1.40625 -3.992188 1.488281 -3.519531 1.65625 -3.0625 C 1.832031 -2.613281 2.070312 -2.210938 2.375 -1.859375 C 2.675781 -1.515625 3.03125 -1.238281 3.4375 -1.03125 C 3.84375 -0.820312 4.285156 -0.71875 4.765625 -0.71875 C 5.097656 -0.71875 5.441406 -0.773438 5.796875 -0.890625 C 6.148438 -1.015625 6.476562 -1.195312 6.78125 -1.4375 C 7.09375 -1.675781 7.34375 -1.992188 7.53125 -2.390625 L 8.265625 -2 C 8.078125 -1.5625 7.789062 -1.1875 7.40625 -0.875 C 7.019531 -0.5625 6.585938 -0.320312 6.109375 -0.15625 C 5.628906 0 5.164062 0.078125 4.71875 0.078125 C 4.101562 0.078125 3.535156 -0.0507812 3.015625 -0.3125 C 2.503906 -0.582031 2.0625 -0.9375 1.6875 -1.375 C 1.320312 -1.820312 1.035156 -2.316406 0.828125 -2.859375 C 0.628906 -3.410156 0.53125 -3.972656 0.53125 -4.546875 Z M 0.53125 -4.546875 "/></g></g><g style="fill:#ffffff;fill-opacity:1;"><g transform="translate(196.295659, 222.711507)"><path style="stroke:none" d="M 8.1875 -8.953125 L 8.1875 0 L 7.3125 0 L 7.3125 -4.1875 L 2 -4.1875 L 2 0 L 1.125 0 L 1.125 -8.953125 L 2 -8.953125 L 2 -4.96875 L 7.3125 -4.96875 L 7.3125 -8.953125 Z M 8.1875 -8.953125 "/></g></g><g style="fill:#ffffff;fill-opacity:1;"><g transform="translate(206.598278, 222.711507)"><path style="stroke:none" d="M 7.859375 -2.3125 C 7.859375 -1.863281 7.742188 -1.460938 7.515625 -1.109375 C 7.285156 -0.765625 6.976562 -0.492188 6.59375 -0.296875 C 6.21875 -0.0976562 5.800781 0 5.34375 0 L 1.125 0 L 1.125 -8.953125 L 5.4375 -8.953125 C 5.851562 -8.953125 6.210938 -8.835938 6.515625 -8.609375 C 6.828125 -8.390625 7.066406 -8.101562 7.234375 -7.75 C 7.398438 -7.40625 7.484375 -7.046875 7.484375 -6.671875 C 7.484375 -6.222656 7.367188 -5.8125 7.140625 -5.4375 C 6.910156 -5.0625 6.59375 -4.78125 6.1875 -4.59375 C 6.695312 -4.4375 7.101562 -4.148438 7.40625 -3.734375 C 7.707031 -3.328125 7.859375 -2.851562 7.859375 -2.3125 Z M 6.96875 -2.453125 C 6.96875 -2.753906 6.898438 -3.035156 6.765625 -3.296875 C 6.628906 -3.554688 6.445312 -3.765625 6.21875 -3.921875 C 5.988281 -4.078125 5.726562 -4.15625 5.4375 -4.15625 L 2 -4.15625 L 2 -0.765625 L 5.34375 -0.765625 C 5.644531 -0.765625 5.914062 -0.84375 6.15625 -1 C 6.40625 -1.164062 6.601562 -1.375 6.75 -1.625 C 6.894531 -1.882812 6.96875 -2.160156 6.96875 -2.453125 Z M 2 -8.1875 L 2 -4.875 L 5.078125 -4.875 C 5.367188 -4.875 5.628906 -4.953125 5.859375 -5.109375 C 6.085938 -5.265625 6.269531 -5.46875 6.40625 -5.71875 C 6.539062 -5.976562 6.609375 -6.25 6.609375 -6.53125 C 6.609375 -6.832031 6.546875 -7.109375 6.421875 -7.359375 C 6.296875 -7.609375 6.125 -7.804688 5.90625 -7.953125 C 5.6875 -8.109375 5.4375 -8.1875 5.15625 -8.1875 Z M 2 -8.1875 "/></g></g><g style="fill:#ffffff;fill-opacity:1;"><g transform="translate(215.993021, 222.711507)"><path style="stroke:none" d="M 4.734375 0.0625 C 4.097656 0.0625 3.523438 -0.0625 3.015625 -0.3125 C 2.503906 -0.5625 2.0625 -0.90625 1.6875 -1.34375 C 1.320312 -1.78125 1.035156 -2.269531 0.828125 -2.8125 C 0.628906 -3.351562 0.53125 -3.90625 0.53125 -4.46875 C 0.53125 -5.070312 0.632812 -5.644531 0.84375 -6.1875 C 1.050781 -6.726562 1.347656 -7.207031 1.734375 -7.625 C 2.117188 -8.050781 2.566406 -8.390625 3.078125 -8.640625 C 3.585938 -8.890625 4.140625 -9.015625 4.734375 -9.015625 C 5.367188 -9.015625 5.941406 -8.882812 6.453125 -8.625 C 6.960938 -8.363281 7.398438 -8.015625 7.765625 -7.578125 C 8.140625 -7.140625 8.425781 -6.648438 8.625 -6.109375 C 8.820312 -5.578125 8.921875 -5.03125 8.921875 -4.46875 C 8.921875 -3.863281 8.816406 -3.289062 8.609375 -2.75 C 8.398438 -2.207031 8.101562 -1.722656 7.71875 -1.296875 C 7.34375 -0.878906 6.898438 -0.546875 6.390625 -0.296875 C 5.878906 -0.0546875 5.328125 0.0625 4.734375 0.0625 Z M 1.40625 -4.46875 C 1.40625 -3.988281 1.484375 -3.519531 1.640625 -3.0625 C 1.804688 -2.613281 2.035156 -2.210938 2.328125 -1.859375 C 2.628906 -1.515625 2.984375 -1.238281 3.390625 -1.03125 C 3.796875 -0.832031 4.242188 -0.734375 4.734375 -0.734375 C 5.242188 -0.734375 5.703125 -0.835938 6.109375 -1.046875 C 6.515625 -1.265625 6.863281 -1.550781 7.15625 -1.90625 C 7.445312 -2.269531 7.664062 -2.671875 7.8125 -3.109375 C 7.96875 -3.554688 8.046875 -4.007812 8.046875 -4.46875 C 8.046875 -4.957031 7.960938 -5.425781 7.796875 -5.875 C 7.640625 -6.320312 7.410156 -6.722656 7.109375 -7.078125 C 6.816406 -7.429688 6.46875 -7.707031 6.0625 -7.90625 C 5.65625 -8.101562 5.210938 -8.203125 4.734375 -8.203125 C 4.222656 -8.203125 3.765625 -8.097656 3.359375 -7.890625 C 2.953125 -7.679688 2.601562 -7.394531 2.3125 -7.03125 C 2.019531 -6.675781 1.796875 -6.273438 1.640625 -5.828125 C 1.484375 -5.390625 1.40625 -4.9375 1.40625 -4.46875 Z M 1.40625 -4.46875 "/></g></g><g style="fill:#ffffff;fill-opacity:1;"><g transform="translate(226.459556, 222.711507)"><path style="stroke:none" d="M 1.078125 -8.953125 L 4 -5.0625 L 6.90625 -8.953125 L 7.90625 -8.953125 L 4.46875 -4.40625 L 7.8125 0 L 6.8125 0 L 4 -3.765625 L 1.171875 0 L 0.15625 0 L 3.5 -4.40625 L 0.0625 -8.953125 Z M 1.078125 -8.953125 "/></g></g></g></svg>