<svg xmlns="http://www.w3.org/2000/svg" xmlns:xlink="http://www.w3.org/1999/xlink" width="171" zoomAndPan="magnify" viewBox="0 0 128.25 42.75" height="57" preserveAspectRatio="xMidYMid meet" version="1.2"><defs><clipPath id="5ed2f914fe"><rect x="0" width="57" y="0" height="33"/></clipPath><clipPath id="0448c02036"><path d="M 0 6.902344 L 17.148438 6.902344 L 17.148438 29.273438 L 0 29.273438 Z M 0 6.902344 "/></clipPath></defs><g id="0ca2dd7075"><g transform="matrix(1,0,0,1,17,5)"><g clip-path="url(#5ed2f914fe)"><g style="fill:#222a34;fill-opacity:1;"><g transform="translate(0.764249, 24.142529)"><path style="stroke:none" d="M 7.0625 0.3125 C 5.84375 0.3125 4.765625 0.0546875 3.828125 -0.453125 C 2.890625 -0.960938 2.15625 -1.671875 1.625 -2.578125 C 1.101562 -3.492188 0.84375 -4.546875 0.84375 -5.734375 C 0.84375 -6.929688 1.109375 -7.976562 1.640625 -8.875 C 2.171875 -9.78125 2.90625 -10.484375 3.84375 -10.984375 C 4.78125 -11.492188 5.867188 -11.75 7.109375 -11.75 C 8.421875 -11.75 9.550781 -11.457031 10.5 -10.875 C 11.457031 -10.300781 12.1875 -9.488281 12.6875 -8.4375 C 13.1875 -7.394531 13.398438 -6.175781 13.328125 -4.78125 L 4.140625 -4.78125 C 4.304688 -3.988281 4.65625 -3.382812 5.1875 -2.96875 C 5.726562 -2.5625 6.375 -2.359375 7.125 -2.359375 C 7.6875 -2.359375 8.191406 -2.460938 8.640625 -2.671875 C 9.097656 -2.878906 9.46875 -3.175781 9.75 -3.5625 L 13.109375 -3.5625 C 12.617188 -2.351562 11.84375 -1.40625 10.78125 -0.71875 C 9.71875 -0.03125 8.476562 0.3125 7.0625 0.3125 Z M 4.171875 -6.875 L 10.125 -6.875 C 9.9375 -7.570312 9.582031 -8.117188 9.0625 -8.515625 C 8.539062 -8.921875 7.894531 -9.125 7.125 -9.125 C 6.40625 -9.125 5.78125 -8.921875 5.25 -8.515625 C 4.71875 -8.117188 4.359375 -7.570312 4.171875 -6.875 Z M 4.171875 -6.875 "/></g></g><g style="fill:#222a34;fill-opacity:1;"><g transform="translate(14.704112, 24.142529)"><path style="stroke:none" d="M 5.46875 0.21875 C 4.125 0.21875 3.054688 -0.09375 2.265625 -0.71875 C 1.484375 -1.351562 1.09375 -2.226562 1.09375 -3.34375 C 1.09375 -4.394531 1.441406 -5.238281 2.140625 -5.875 C 2.847656 -6.507812 3.800781 -6.828125 5 -6.828125 L 9.140625 -6.828125 L 9.140625 -7.34375 C 9.140625 -7.914062 8.9375 -8.375 8.53125 -8.71875 C 8.125 -9.0625 7.59375 -9.234375 6.9375 -9.234375 C 6.394531 -9.234375 5.9375 -9.109375 5.5625 -8.859375 C 5.1875 -8.609375 4.945312 -8.28125 4.84375 -7.875 L 1.65625 -7.875 C 1.863281 -9.125 2.425781 -10.082031 3.34375 -10.75 C 4.269531 -11.414062 5.460938 -11.75 6.921875 -11.75 C 8.628906 -11.75 9.96875 -11.316406 10.9375 -10.453125 C 11.90625 -9.585938 12.390625 -8.398438 12.390625 -6.890625 L 12.390625 0 L 9.921875 0 L 9.546875 -1.328125 C 8.546875 -0.296875 7.1875 0.21875 5.46875 0.21875 Z M 4.359375 -3.46875 C 4.359375 -3.070312 4.53125 -2.753906 4.875 -2.515625 C 5.21875 -2.273438 5.671875 -2.15625 6.234375 -2.15625 C 7.066406 -2.15625 7.753906 -2.394531 8.296875 -2.875 C 8.847656 -3.351562 9.132812 -3.976562 9.15625 -4.75 L 6.015625 -4.75 C 5.523438 -4.75 5.125 -4.632812 4.8125 -4.40625 C 4.507812 -4.175781 4.359375 -3.863281 4.359375 -3.46875 Z M 4.359375 -3.46875 "/></g></g><g style="fill:#222a34;fill-opacity:1;"><g transform="translate(28.316748, 24.142529)"><path style="stroke:none" d="M 7.109375 0.3125 C 5.890625 0.3125 4.804688 0.0507812 3.859375 -0.46875 C 2.910156 -0.988281 2.171875 -1.703125 1.640625 -2.609375 C 1.109375 -3.515625 0.84375 -4.554688 0.84375 -5.734375 C 0.84375 -6.910156 1.109375 -7.945312 1.640625 -8.84375 C 2.171875 -9.75 2.910156 -10.457031 3.859375 -10.96875 C 4.804688 -11.488281 5.890625 -11.75 7.109375 -11.75 C 8.171875 -11.75 9.132812 -11.554688 10 -11.171875 C 10.863281 -10.785156 11.578125 -10.238281 12.140625 -9.53125 C 12.710938 -8.832031 13.085938 -8.007812 13.265625 -7.0625 L 10.078125 -7.0625 C 9.796875 -7.644531 9.398438 -8.097656 8.890625 -8.421875 C 8.390625 -8.753906 7.8125 -8.921875 7.15625 -8.921875 C 6.269531 -8.921875 5.539062 -8.625 4.96875 -8.03125 C 4.40625 -7.445312 4.125 -6.679688 4.125 -5.734375 C 4.125 -4.804688 4.40625 -4.039062 4.96875 -3.4375 C 5.539062 -2.84375 6.269531 -2.546875 7.15625 -2.546875 C 7.851562 -2.546875 8.46875 -2.734375 9 -3.109375 C 9.53125 -3.484375 9.910156 -3.984375 10.140625 -4.609375 L 13.375 -4.609375 C 13.164062 -3.597656 12.773438 -2.722656 12.203125 -1.984375 C 11.628906 -1.253906 10.90625 -0.6875 10.03125 -0.28125 C 9.15625 0.113281 8.179688 0.3125 7.109375 0.3125 Z M 7.109375 0.3125 "/></g></g><g style="fill:#222a34;fill-opacity:1;"><g transform="translate(42.278426, 24.142529)"><path style="stroke:none" d="M 1.65625 0 L 1.65625 -16.140625 L 4.96875 -16.140625 L 4.96875 -10.578125 C 5.40625 -10.972656 5.914062 -11.265625 6.5 -11.453125 C 7.082031 -11.648438 7.691406 -11.75 8.328125 -11.75 C 9.816406 -11.75 10.984375 -11.289062 11.828125 -10.375 C 12.671875 -9.46875 13.09375 -8.210938 13.09375 -6.609375 L 13.09375 0 L 9.765625 0 L 9.765625 -6.28125 C 9.765625 -7.125 9.566406 -7.773438 9.171875 -8.234375 C 8.773438 -8.691406 8.21875 -8.921875 7.5 -8.921875 C 6.75 -8.921875 6.140625 -8.660156 5.671875 -8.140625 C 5.203125 -7.628906 4.96875 -6.921875 4.96875 -6.015625 L 4.96875 0 Z M 1.65625 0 "/></g></g></g></g><path style=" stroke:none;fill-rule:nonzero;fill:#8c52ff;fill-opacity:1;" d="M 0.695312 11.335938 C 0.738281 11.375 0.75 11.738281 0.761719 11.820312 C 1.222656 15.285156 2.496094 18.683594 4.539062 21.527344 C 4.894531 22.023438 5.261719 22.554688 5.691406 22.992188 C 5.089844 23.1875 4.515625 23.285156 3.890625 23.523438 C 3.0625 23.75 1.253906 24.734375 0.660156 25.242188 C 0.671875 24.863281 0.660156 24.476562 0.660156 24.097656 L 0.664062 16.046875 C 0.664062 14.472656 0.648438 12.90625 0.695312 11.335938 Z M 0.695312 11.335938 "/><g clip-rule="nonzero" clip-path="url(#0448c02036)"><path style=" stroke:none;fill-rule:nonzero;fill:#8c52ff;fill-opacity:1;" d="M 2.695312 6.949219 L 6.117188 6.949219 C 6.953125 6.949219 7.808594 6.910156 8.644531 6.976562 C 11.703125 7.214844 14.722656 9.183594 15.738281 12.152344 C 17.058594 16.011719 14.644531 19.675781 10.949219 20.9375 C 11.175781 21.304688 11.449219 21.648438 11.703125 21.996094 L 17.242188 29.582031 L 14.652344 29.582031 C 13.992188 29.582031 13.328125 29.589844 12.664062 29.582031 C 12.496094 29.351562 12.328125 29.117188 12.160156 28.878906 C 11.589844 28.125 11.039062 27.351562 10.480469 26.582031 L 4.777344 18.632812 C 4.570312 18.34375 4.308594 18.0625 4.152344 17.746094 C 4.359375 17.761719 4.582031 17.746094 4.792969 17.746094 L 7.585938 17.746094 C 9.199219 17.746094 10.753906 17.464844 11.773438 16.03125 C 12.730469 14.679688 12.457031 13.007812 11.269531 11.90625 C 10 10.730469 8.554688 10.667969 6.957031 10.667969 L 5.132812 10.667969 C 4.589844 10.667969 4.050781 10.695312 3.515625 10.589844 C 1.746094 10.238281 0.304688 8.726562 0 6.949219 C 0.289062 6.96875 0.59375 6.949219 0.886719 6.949219 L 2.699219 6.949219 Z M 2.695312 6.949219 "/></g><g style="fill:#fe9559;fill-opacity:1;"><g transform="translate(73.818165, 29.218907)"><path style="stroke:none" d="M 9.265625 0.3125 C 8.210938 0.3125 7.253906 0.109375 6.390625 -0.296875 C 5.523438 -0.703125 4.804688 -1.257812 4.234375 -1.96875 L 3.984375 0 L 2.296875 0 L 2.296875 -18.21875 L 4.359375 -18.21875 L 4.359375 -10.953125 C 4.929688 -11.628906 5.640625 -12.15625 6.484375 -12.53125 C 7.328125 -12.90625 8.253906 -13.09375 9.265625 -13.09375 C 10.523438 -13.09375 11.640625 -12.800781 12.609375 -12.21875 C 13.585938 -11.644531 14.359375 -10.851562 14.921875 -9.84375 C 15.484375 -8.84375 15.765625 -7.695312 15.765625 -6.40625 C 15.765625 -5.101562 15.484375 -3.945312 14.921875 -2.9375 C 14.359375 -1.925781 13.585938 -1.128906 12.609375 -0.546875 C 11.640625 0.0234375 10.523438 0.3125 9.265625 0.3125 Z M 4.28125 -6.40625 C 4.28125 -5.488281 4.476562 -4.671875 4.875 -3.953125 C 5.28125 -3.234375 5.835938 -2.671875 6.546875 -2.265625 C 7.253906 -1.867188 8.066406 -1.671875 8.984375 -1.671875 C 9.921875 -1.671875 10.742188 -1.867188 11.453125 -2.265625 C 12.160156 -2.671875 12.707031 -3.234375 13.09375 -3.953125 C 13.488281 -4.671875 13.6875 -5.488281 13.6875 -6.40625 C 13.6875 -7.320312 13.488281 -8.132812 13.09375 -8.84375 C 12.707031 -9.5625 12.160156 -10.117188 11.453125 -10.515625 C 10.742188 -10.921875 9.921875 -11.125 8.984375 -11.125 C 8.066406 -11.125 7.253906 -10.921875 6.546875 -10.515625 C 5.835938 -10.117188 5.28125 -9.5625 4.875 -8.84375 C 4.476562 -8.132812 4.28125 -7.320312 4.28125 -6.40625 Z M 4.28125 -6.40625 "/></g></g><g style="fill:#24265d;fill-opacity:1;"><g transform="translate(90.618355, 29.218907)"><path style="stroke:none" d="M 8.046875 0.3125 C 6.722656 0.3125 5.550781 0.0234375 4.53125 -0.546875 C 3.507812 -1.117188 2.710938 -1.910156 2.140625 -2.921875 C 1.566406 -3.941406 1.28125 -5.101562 1.28125 -6.40625 C 1.28125 -7.71875 1.566406 -8.875 2.140625 -9.875 C 2.710938 -10.875 3.507812 -11.660156 4.53125 -12.234375 C 5.550781 -12.804688 6.722656 -13.09375 8.046875 -13.09375 C 9.378906 -13.09375 10.550781 -12.804688 11.5625 -12.234375 C 12.582031 -11.660156 13.378906 -10.875 13.953125 -9.875 C 14.535156 -8.875 14.828125 -7.71875 14.828125 -6.40625 C 14.828125 -5.101562 14.535156 -3.941406 13.953125 -2.921875 C 13.378906 -1.910156 12.582031 -1.117188 11.5625 -0.546875 C 10.550781 0.0234375 9.378906 0.3125 8.046875 0.3125 Z M 3.34375 -6.40625 C 3.34375 -5.46875 3.546875 -4.640625 3.953125 -3.921875 C 4.359375 -3.210938 4.910156 -2.660156 5.609375 -2.265625 C 6.316406 -1.867188 7.128906 -1.671875 8.046875 -1.671875 C 8.972656 -1.671875 9.785156 -1.867188 10.484375 -2.265625 C 11.191406 -2.660156 11.742188 -3.210938 12.140625 -3.921875 C 12.546875 -4.640625 12.75 -5.46875 12.75 -6.40625 C 12.75 -7.34375 12.546875 -8.160156 12.140625 -8.859375 C 11.742188 -9.566406 11.191406 -10.117188 10.484375 -10.515625 C 9.785156 -10.921875 8.972656 -11.125 8.046875 -11.125 C 7.128906 -11.125 6.316406 -10.921875 5.609375 -10.515625 C 4.910156 -10.117188 4.359375 -9.566406 3.953125 -8.859375 C 3.546875 -8.160156 3.34375 -7.34375 3.34375 -6.40625 Z M 3.34375 -6.40625 "/></g></g><g style="fill:#24265d;fill-opacity:1;"><g transform="translate(106.472104, 29.218907)"><path style="stroke:none" d="M 0.84375 0 L 5.734375 -6.5 L 1.078125 -12.78125 L 3.578125 -12.78125 L 5.5625 -10.078125 L 7.09375 -7.953125 L 8.640625 -10.078125 L 10.640625 -12.78125 L 13.09375 -12.78125 L 8.453125 -6.5 L 13.34375 0 L 10.828125 0 L 8.671875 -2.90625 L 7.109375 -5.046875 L 5.546875 -2.90625 L 3.34375 0 Z M 0.84375 0 "/></g></g></g></svg>